# xmcd
#
# Track frame offsets:
#   150
#   16301
#   36055
#   51588
#   68181
#   82823
#   103142
#   121236
#   139995
#   157837
#   174519
#   187523
#   201965
#   216770
#   233735
#
# Disc length: 3314 seconds
#
# Revision: 0
# Processed by: cddbd v1.5.1PL0 Copyright (c) Steve Scherf et al.
# Submitted via: Media_Universe 3.0
#
DISCID=c40cf00f
DTITLE=KEITH URBAN - Keith Urban
DYEAR=1900
DGENRE=Country
TTITLE0=Only You
TTITLE1=Got It Bad
TTITLE2=Blue Stranger
TTITLE3=Without You
TTITLE4=Arms Of Mary
TTITLE5=Yesterday
TTITLE6=Don't Go
TTITLE7=Hold On To Your Dreams
TTITLE8=Lovin' On The Side
TTITLE9=Future Plans
TTITLE10=Love We Got Goin' 
TTITLE11=Clutterbilly
TTITLE12=The River
TTITLE13=What Love Is That Way
TTITLE14=I Never Work On Sunday
EXTD=
EXTT0=
EXTT1=
EXTT2=
EXTT3=
EXTT4=
EXTT5=
EXTT6=
EXTT7=
EXTT8=
EXTT9=
EXTT10=
EXTT11=
EXTT12=
EXTT13=
EXTT14=
PLAYORDER=
